<?xml version="1.0" standalone="no"?>
<!DOCTYPE svg PUBLIC "-//W3C//DTD SVG 20010904//EN"
 "http://www.w3.org/TR/2001/REC-SVG-20010904/DTD/svg10.dtd">
<svg version="1.0" xmlns="http://www.w3.org/2000/svg"
 width="1254.000000pt" height="1254.000000pt" viewBox="0 0 1254.000000 1254.000000"
 preserveAspectRatio="xMidYMid meet">

<g transform="translate(0.000000,1254.000000) scale(0.100000,-0.100000)"
fill="#000000" stroke="none">
<path d="M5985 10939 c-441 -30 -918 -140 -1345 -311 -865 -344 -1604 -976
-2098 -1795 -95 -157 -251 -468 -312 -623 -152 -382 -247 -752 -296 -1160 -23
-183 -26 -750 -6 -935 90 -821 374 -1547 857 -2191 290 -385 724 -791 1145
-1069 575 -380 1143 -591 1854 -687 217 -30 738 -32 971 -5 1042 124 1990 597
2684 1340 687 736 1086 1634 1182 2657 15 160 15 574 0 755 -62 729 -288 1401
-681 2020 -320 505 -700 909 -1170 1245 -766 547 -1794 827 -2785 759z m710
-324 c207 -20 554 -82 578 -105 5 -4 -10 -10 -33 -14 -76 -12 -279 -85 -405
-145 -206 -98 -355 -202 -524 -366 -355 -343 -555 -785 -637 -1410 -41 -316
-24 -801 41 -1165 l14 -75 -37 -30 c-205 -165 -334 -371 -383 -608 -11 -56
-23 -104 -25 -107 -3 -3 -78 -5 -167 -4 -191 0 -261 15 -421 92 -171 82 -295
168 -586 406 -188 154 -303 232 -435 296 -171 83 -315 119 -505 127 -343 15
-608 -84 -832 -310 -43 -43 -78 -72 -78 -63 0 8 11 75 25 150 82 442 254 916
473 1301 387 680 996 1261 1686 1607 531 266 1062 405 1691 442 101 6 401 -5
560 -19z m1148 -400 c345 -45 593 -196 747 -455 67 -112 90 -199 90 -338 0
-325 -173 -653 -436 -828 -98 -65 -200 -114 -399 -188 -82 -31 -211 -79 -285
-107 -182 -68 -346 -147 -449 -217 -102 -68 -271 -228 -340 -321 -50 -67 -124
-202 -153 -279 -16 -40 -18 -42 -44 -31 -111 42 -378 56 -497 26 -68 -17 -59
-32 -82 148 -81 664 -13 1238 200 1680 197 410 546 709 995 853 214 68 426 87
653 57z m1283 -757 c254 -260 446 -513 637 -835 303 -511 497 -1128 548 -1739
15 -189 7 -687 -15 -854 -84 -635 -314 -1254 -661 -1775 -146 -218 -335 -456
-312 -392 22 59 59 226 73 326 20 146 15 452 -11 581 -33 170 -75 295 -150
455 -266 558 -873 1036 -1640 1290 -88 29 -199 61 -247 71 l-88 18 -6 36 c-37
226 -129 406 -292 570 l-84 85 18 54 c45 132 166 301 287 401 139 115 250 170
607 305 399 150 532 213 680 323 327 244 533 678 518 1094 -2 65 -1 118 2 118
4 0 65 -60 136 -132z m-5866 -2273 c225 -34 387 -116 640 -324 230 -190 287
-234 404 -312 204 -137 400 -225 591 -264 60 -12 122 -16 249 -14 l168 3 23
-71 c43 -137 139 -295 239 -392 l45 -44 -51 -46 c-77 -69 -192 -159 -303 -238
-381 -269 -800 -436 -1215 -484 -130 -15 -384 -7 -499 16 -466 92 -883 414
-1106 855 -136 270 -174 485 -121 691 46 179 128 323 252 438 111 104 231 160
394 186 114 18 177 18 290 0z m3212 -30 c110 -36 190 -86 279 -175 70 -69 94
-101 127 -170 58 -120 75 -200 70 -335 -8 -208 -91 -372 -257 -505 -121 -97
-256 -143 -416 -143 -257 0 -479 135 -600 365 -49 93 -75 201 -75 312 0 115
20 198 72 306 73 152 233 289 403 344 110 35 289 36 397 1z m927 -906 c462
-131 932 -399 1233 -703 284 -287 436 -612 467 -1000 28 -351 -92 -789 -301
-1093 -153 -225 -451 -447 -691 -514 -106 -30 -288 -33 -387 -6 -218 59 -394
206 -495 413 -61 125 -84 221 -91 379 -7 156 5 248 70 520 113 478 129 743 62
1020 -49 199 -117 330 -268 518 l-22 27 31 33 c87 93 173 244 213 375 25 83 6
79 179 31z m-600 -711 c158 -211 220 -452 192 -751 -13 -137 -37 -267 -91
-497 -59 -250 -73 -346 -73 -515 0 -177 17 -286 68 -436 62 -178 143 -307 273
-435 88 -87 222 -179 311 -214 33 -14 61 -27 61 -30 0 -7 -274 -85 -385 -109
-142 -31 -318 -59 -480 -76 -180 -19 -551 -22 -720 -6 -964 94 -1788 484
-2504 1185 -415 407 -712 840 -916 1336 -48 115 -137 371 -132 376 2 2 32 -31
67 -72 196 -227 506 -431 803 -529 198 -65 352 -88 577 -88 318 0 590 53 920
180 126 48 389 182 518 263 189 119 426 306 551 433 l43 45 52 -23 c120 -53
320 -77 467 -56 95 14 226 52 279 81 19 10 40 19 46 20 6 0 39 -37 73 -82z"/>
</g>
</svg>
